<svg width="29" height="29" viewBox="0 0 29 29" fill="none" xmlns="http://www.w3.org/2000/svg">
<path d="M14.2222 28.4444C22.0769 28.4444 28.4444 22.0769 28.4444 14.2222C28.4444 6.36751 22.0769 0 14.2222 0C6.36751 0 0 6.36751 0 14.2222C0 22.0769 6.36751 28.4444 14.2222 28.4444Z" fill="#F0F4F2"/>
<path d="M14.459 19.1299C13.306 19.1299 12.4538 18.8359 11.9023 18.248C11.3555 17.6556 11.082 16.7692 11.082 15.5889L12.6953 15.5137C12.6953 15.8919 12.7204 16.2109 12.7705 16.4707C12.8206 16.7305 12.9095 16.9606 13.0371 17.1611C13.1693 17.3571 13.3516 17.5029 13.584 17.5986C13.8164 17.6943 14.1081 17.7422 14.459 17.7422C15.0195 17.7422 15.4616 17.5895 15.7852 17.2842C16.1133 16.9743 16.2773 16.5732 16.2773 16.0811C16.2773 15.5615 16.1201 15.1582 15.8057 14.8711C15.4958 14.5794 15.0924 14.4336 14.5957 14.4336H14.165V13.1689H14.5752C14.9489 13.1689 15.2611 13.0368 15.5117 12.7725C15.7669 12.5081 15.8945 12.1777 15.8945 11.7812C15.8945 11.3893 15.7578 11.0771 15.4844 10.8447C15.2109 10.6123 14.86 10.4961 14.4316 10.4961C14.1536 10.4961 13.9189 10.5417 13.7275 10.6328C13.5361 10.724 13.3903 10.8561 13.29 11.0293C13.1943 11.2025 13.126 11.3893 13.085 11.5898C13.0439 11.7858 13.0234 12.0137 13.0234 12.2734L11.4238 12.2051C11.4238 11.207 11.6859 10.4437 12.21 9.91504C12.734 9.38184 13.4701 9.11523 14.418 9.11523C15.2656 9.11523 15.9697 9.35905 16.5303 9.84668C17.0908 10.3343 17.3711 10.9382 17.3711 11.6582C17.3711 12.1413 17.2435 12.5628 16.9883 12.9229C16.7331 13.2829 16.4277 13.5381 16.0723 13.6885C16.5918 13.8343 17.0225 14.1146 17.3643 14.5293C17.7106 14.944 17.8838 15.484 17.8838 16.1494C17.8838 17.0472 17.5671 17.7695 16.9336 18.3164C16.3001 18.8587 15.4753 19.1299 14.459 19.1299Z" fill="#1D352A"/>
</svg>
