<svg width="29" height="29" viewBox="0 0 29 29" fill="none" xmlns="http://www.w3.org/2000/svg">
<path d="M14.2222 28.4444C22.0769 28.4444 28.4444 22.0769 28.4444 14.2222C28.4444 6.36751 22.0769 0 14.2222 0C6.36751 0 0 6.36751 0 14.2222C0 22.0769 6.36751 28.4444 14.2222 28.4444Z" fill="#03A84E"/>
<path d="M12.5742 17.8008H17.0723V19.2227H10.3457V18.0332L14.2422 14.0342C14.8939 13.3643 15.2197 12.7262 15.2197 12.1201C15.2197 11.6507 15.0807 11.2861 14.8027 11.0264C14.5247 10.762 14.1488 10.6299 13.6748 10.6299C13.1781 10.6299 12.7861 10.7757 12.499 11.0674C12.2119 11.3545 12.0684 11.8148 12.0684 12.4482V13.166L10.5029 13.0156V12.4688C10.5029 11.457 10.7878 10.68 11.3574 10.1377C11.9271 9.59538 12.6973 9.32422 13.668 9.32422C14.5794 9.32422 15.3245 9.57259 15.9033 10.0693C16.4821 10.5661 16.7715 11.2474 16.7715 12.1133C16.7715 12.61 16.6644 13.068 16.4502 13.4873C16.236 13.9066 15.8988 14.3555 15.4385 14.834L12.5742 17.8008Z" fill="white"/>
</svg>
